HIERARCHY
ROOT Hips
{
	OFFSET 0.000000 88.474243 0.000000
	CHANNELS 6 Xposition Yposition Zposition Zrotation Yrotation Xrotation 
	JOINT Hips_Spine
	{
		OFFSET 0.000000 0.000000 0.000000
		CHANNELS 3 Zrotation Yrotation Xrotation
		JOINT Spine
		{
			OFFSET 0.005100 8.711998 -0.691000
			CHANNELS 3 Zrotation Yrotation Xrotation
			JOINT Spine1
			{
				OFFSET -0.009200 8.660301 -1.275000
				CHANNELS 3 Zrotation Yrotation Xrotation
				JOINT Spine2
				{
					OFFSET 0.006300 9.852501 -1.857000
					CHANNELS 3 Zrotation Yrotation Xrotation
					JOINT Spine2_Neck
					{
						OFFSET 0.000000 0.000000 0.000000
						CHANNELS 3 Zrotation Yrotation Xrotation
						JOINT Neck
						{
							OFFSET 0.016300 11.420799 -0.263300
							CHANNELS 3 Zrotation Yrotation Xrotation
							End Site #name: Head
							{
								OFFSET -0.019200 9.262405 2.362500
							}
						}
					}
					JOINT Spine2_LeftShoulder
					{
						OFFSET 0.000000 0.000000 0.000000
						CHANNELS 3 Zrotation Yrotation Xrotation
						JOINT LeftShoulder
						{
							OFFSET 5.616900 6.732201 -0.345700
							CHANNELS 3 Zrotation Yrotation Xrotation
							JOINT LeftArm
							{
								OFFSET 10.664888 -0.183372 -2.440700
								CHANNELS 3 Zrotation Yrotation Xrotation
								JOINT LeftForeArm
								{
									OFFSET 27.459126 0.000000 0.000000
									CHANNELS 3 Zrotation Yrotation Xrotation
									End Site #name: LeftHand
									{
										OFFSET 21.306858 0.000000 0.000000
									}
								}
							}
						}
					}
					JOINT Spine2_RightShoulder
					{
						OFFSET 0.000000 0.000000 0.000000
						CHANNELS 3 Zrotation Yrotation Xrotation
						JOINT RightShoulder
						{
							OFFSET -5.580300 6.737503 -0.344400
							CHANNELS 3 Zrotation Yrotation Xrotation
							JOINT RightArm
							{
								OFFSET -10.679335 -0.188484 -2.383900
								CHANNELS 3 Zrotation Yrotation Xrotation
								JOINT RightForeArm
								{
									OFFSET -27.503529 0.000000 0.000000
									CHANNELS 3 Zrotation Yrotation Xrotation
									End Site #name: RightHand
									{
										OFFSET -21.306808 0.000000 0.000000
									}
								}
							}
						}
					}
				}
			}
		}
	}
	JOINT Hips_LeftUpLeg
	{
		OFFSET 0.000000 0.000000 0.000000
		CHANNELS 3 Zrotation Yrotation Xrotation
		JOINT LeftUpLeg
		{
			OFFSET 6.857700 -6.739601 0.312100
			CHANNELS 3 Zrotation Yrotation Xrotation
			JOINT LeftLeg
			{
				OFFSET -0.367590 -34.731552 -4.572400
				CHANNELS 3 Zrotation Yrotation Xrotation
				End Site #name: LeftFoot
				{
					OFFSET 0.367590 -34.656704 -6.067400
				}
			}
		}
	}
	JOINT Hips_RightUpLeg
	{
		OFFSET 0.000000 0.000000 0.000000
		CHANNELS 3 Zrotation Yrotation Xrotation
		JOINT RightUpLeg
		{
			OFFSET -6.876100 -6.733299 0.301000
			CHANNELS 3 Zrotation Yrotation Xrotation
			JOINT RightLeg
			{
				OFFSET 0.347353 -34.795158 -4.515900
				CHANNELS 3 Zrotation Yrotation Xrotation
				End Site #name: RightFoot
				{
					OFFSET -0.347353 -34.589367 -6.070300
				}
			}
		}
	}
}
MOTION
Frames: 15
Frame Time: 0.041667
0.152353 0.046079 -0.012524 0.842076 25.473891 -6.445824 -0.000000 0.000000 0.000000 0.029642 -0.906357 0.434590 -0.094994 -1.301377 -1.134182 0.000000 0.000000 0.000000 -0.516655 -0.880876 -1.821952 4.654341 0.535783 -6.831720 -0.127706 -1.689031 -2.732963 -15.585327 -6.548291 2.399749 -47.655550 -0.481055 8.276553 0.234650 -30.834813 6.008601 -0.419943 -1.031675 -0.527766 12.729106 11.202342 4.376316 56.803093 -5.198258 -4.287770 -0.493161 56.195622 0.580572 0.000000 0.000000 0.000000 -10.251570 19.447214 -5.753725 -1.546526 -3.108612 25.088625 0.000000 0.000000 0.000000 -4.074594 15.688437 -8.303423 6.903834 4.432890 -2.542814 
0.742613 -0.051408 0.200559 2.600558 28.269352 -6.888092 -0.000000 0.000000 0.000000 -2.478858 -2.132118 -1.053970 0.120829 -1.420015 -1.664813 0.000000 0.000000 0.000000 -0.504212 -0.921430 -2.896386 6.045738 -0.932362 -7.057122 -0.758464 -1.570954 -3.821265 -20.629613 -3.216325 1.279207 -45.566255 -0.011729 -1.311536 -0.427380 -24.410533 3.815193 -0.625994 -1.298153 -1.118831 13.072563 8.023333 1.644779 59.372454 -0.749214 -4.206064 -0.749070 57.547455 -0.946528 0.000000 0.000000 -0.000000 -13.059221 17.249129 -2.916907 -0.616100 0.284864 22.789463 0.000000 0.000000 0.000000 -7.712112 18.043604 -8.416020 6.949682 4.404187 -0.441178 
1.079626 -0.091331 0.297936 4.307801 26.336278 -6.667011 -0.000000 0.000000 -0.000000 -3.650167 -3.397505 -1.068545 0.103577 -1.198278 -1.660849 0.000000 0.000000 0.000000 0.022137 -1.223442 -2.798729 5.782340 -1.339802 -8.250081 -0.949998 -1.437049 -3.296315 -24.161541 -2.147352 3.058754 -45.704977 6.833529 -4.654332 -1.063140 -25.446497 4.002901 -0.433198 -1.319456 -1.038357 11.950552 7.115183 1.796949 58.299242 1.816598 -2.237615 -0.403542 53.120212 -0.790940 0.000000 0.000000 -0.000000 -14.878575 16.905060 -0.994924 -0.985064 0.629445 20.781118 0.000000 0.000000 0.000000 -9.750123 19.407918 -10.509278 6.637758 2.648233 4.091983 
1.357109 -0.115776 0.334162 5.201064 24.167567 -6.447778 -0.000000 0.000000 -0.000000 -4.536968 -2.919775 -0.225784 0.144836 -1.096909 -1.508914 0.000000 0.000000 0.000000 0.241922 -1.334138 -2.527373 5.334988 -2.452052 -6.574904 -0.815053 -1.424740 -2.978524 -25.341160 -1.987525 4.465423 -45.274209 7.785958 -4.071096 -0.656250 -24.886848 6.028572 -0.213446 -1.264895 -0.809945 10.805291 7.221303 1.749864 58.055709 5.045732 -0.230147 -0.223608 54.259435 -0.675501 0.000000 0.000000 -0.000000 -15.941067 16.933802 -0.471487 -1.221590 1.107802 20.070203 0.000000 0.000000 0.000000 -11.446306 19.067600 -13.012969 6.388591 2.372313 9.648156 
1.663913 -0.117237 0.328500 5.657317 23.761262 -6.009045 -0.000000 0.000000 -0.000000 -5.142335 -2.219294 -0.196719 0.043743 -0.983993 -1.465481 0.000000 0.000000 0.000000 0.082443 -1.393812 -2.599881 5.323457 -3.275839 -5.240968 -0.807364 -1.432770 -2.826973 -27.129259 -1.272067 5.575245 -43.071728 7.714392 -3.772726 -0.070124 -21.363788 7.960788 -0.211479 -1.170563 -0.705925 9.159235 7.385528 1.606262 58.859607 6.327904 0.499091 -0.171269 56.048950 -0.778660 0.000000 0.000000 -0.000000 -16.633700 17.059351 -0.305785 -1.420964 1.365549 19.555181 0.000000 0.000000 0.000000 -12.950777 18.371543 -14.860591 6.384721 2.751598 13.741784 
1.992912 -0.100510 0.296468 5.837660 23.646742 -5.747385 -0.000000 0.000000 -0.000000 -5.252004 -1.839922 -0.794206 -0.128576 -0.902378 -1.527405 0.000000 0.000000 0.000000 -0.221958 -1.434664 -2.770220 5.002552 -3.619587 -4.106238 -0.937858 -1.465677 -2.908096 -29.110338 -0.465722 6.126730 -41.294522 7.394072 -2.632731 0.449776 -16.728558 9.210075 -0.378221 -1.175570 -0.802706 7.628363 7.420338 1.463710 60.253267 5.936331 -0.334715 -0.040778 56.325554 -0.787741 0.000000 0.000000 -0.000000 -17.054823 17.170109 -0.259624 -1.426653 1.577669 19.126507 0.000000 0.000000 0.000000 -14.034342 17.654455 -15.598935 6.487478 3.668392 16.195457 
2.333498 -0.072972 0.263050 5.765669 23.693721 -5.646301 -0.000000 0.000000 -0.000000 -4.959825 -1.587675 -1.582559 -0.326834 -0.797280 -1.752829 0.000000 0.000000 0.000000 -0.520935 -1.428923 -2.919860 4.689962 -3.367613 -3.541327 -1.156097 -1.457811 -3.121492 -30.915132 0.384410 6.244643 -39.802463 7.157841 -1.636265 0.885542 -11.932483 9.708933 -0.646491 -1.164712 -0.962131 6.543919 7.479081 1.405312 62.042042 4.516665 -1.861214 0.160435 55.224790 -0.717894 0.000000 0.000000 -0.000000 -17.170665 17.223295 -0.421798 -1.404264 1.836244 19.012450 0.000000 0.000000 0.000000 -14.642599 16.848301 -15.738828 6.676092 4.837792 17.693564 
2.664728 -0.037805 0.236303 5.517268 24.178555 -5.589992 -0.000000 0.000000 -0.000000 -4.766308 -1.356826 -2.249111 -0.505548 -0.690773 -2.019120 0.000000 0.000000 0.000000 -0.761360 -1.402910 -3.086562 4.315209 -3.099847 -3.139445 -1.369015 -1.425711 -3.380578 -32.308026 1.132905 6.120896 -38.548279 7.072526 -1.214368 1.021705 -9.046414 9.472751 -0.972154 -1.076139 -1.110736 5.990637 7.434972 1.391920 63.627446 2.805145 -3.522421 0.380097 53.596758 -0.682035 0.000000 0.000000 -0.000000 -17.094210 17.151057 -0.675595 -1.297023 2.139703 18.986925 0.000000 0.000000 0.000000 -14.944930 15.636727 -15.510359 6.753999 5.811163 18.590096 
2.967694 0.004424 0.226417 5.147433 25.382693 -5.537988 -0.000000 0.000000 -0.000000 -4.849389 -1.061548 -2.609192 -0.645380 -0.564511 -2.259252 0.000000 0.000000 0.000000 -0.943195 -1.347788 -3.258509 3.906204 -2.788678 -2.781947 -1.525986 -1.370287 -3.683165 -33.109681 1.646971 6.016946 -37.828653 7.154377 -1.116267 0.927811 -8.160445 8.997245 -1.254428 -0.963986 -1.248482 5.762962 7.316428 1.391497 65.524719 1.686237 -4.708916 0.534014 51.480644 -0.589763 0.000000 0.000000 -0.000000 -16.893206 17.119074 -0.944579 -1.085608 2.442999 18.883774 0.000000 0.000000 0.000000 -15.035899 14.022347 -15.052055 6.738766 6.669950 19.022162 
3.241430 0.051041 0.233200 4.710338 26.944565 -5.466426 -0.000000 0.000000 -0.000000 -5.227007 -0.743185 -2.653631 -0.743251 -0.431784 -2.464550 0.000000 0.000000 0.000000 -1.082296 -1.274073 -3.422645 3.702807 -2.276585 -2.577100 -1.630877 -1.279525 -3.940121 -33.382916 1.972681 5.915658 -37.816704 7.255351 -1.185430 0.789165 -8.365157 8.540770 -1.476891 -0.825733 -1.378277 5.526214 7.173702 1.367088 66.984285 1.098121 -5.008704 0.649535 49.447818 -0.542210 0.000000 0.000000 -0.000000 -16.582023 17.066269 -1.274448 -0.849338 2.781367 18.841010 0.000000 0.000000 0.000000 -14.900765 12.044357 -14.479961 6.581900 7.385967 19.089805 
3.478774 0.101957 0.255178 4.238172 28.386882 -5.414097 -0.000000 0.000000 -0.000000 -5.798466 -0.434615 -2.477875 -0.812259 -0.313174 -2.660779 0.000000 0.000000 0.000000 -1.184453 -1.191887 -3.565003 3.626332 -1.764064 -2.487741 -1.703368 -1.178831 -4.143564 -33.263913 2.181667 5.833512 -38.062789 7.344392 -1.523603 0.651125 -9.284915 8.229301 -1.643178 -0.695422 -1.477287 5.234055 6.976547 1.317823 67.951557 1.021230 -4.848011 0.722834 47.697584 -0.506692 0.000000 0.000000 -0.000000 -16.222536 16.962954 -1.700276 -0.662289 3.065569 19.044793 0.000000 0.000000 0.000000 -14.591898 9.884417 -13.828609 6.249745 7.879647 18.737370 
3.671793 0.155505 0.287835 3.801890 29.542266 -5.360707 -0.000000 0.000000 -0.000000 -6.441170 -0.170008 -2.177373 -0.870113 -0.217936 -2.844270 0.000000 0.000000 0.000000 -1.276954 -1.112943 -3.675266 3.606105 -1.265855 -2.460896 -1.765487 -1.117748 -4.287924 -32.935129 2.318433 5.787705 -38.498573 7.262484 -1.834952 0.570169 -10.306878 8.061894 -1.772920 -0.587931 -1.538114 5.054426 6.807353 1.276720 68.289382 1.117511 -4.659616 0.747653 46.527926 -0.490390 0.000000 0.000000 -0.000000 -15.889643 16.836294 -2.082438 -0.521047 3.311913 19.219685 0.000000 0.000000 0.000000 -14.193326 7.778445 -13.112659 5.836182 8.202040 17.909786 
3.813318 0.208134 0.325200 3.460711 30.282463 -5.290672 -0.000000 0.000000 -0.000000 -6.999450 -0.037983 -1.858597 -0.911219 -0.150161 -2.971039 0.000000 0.000000 0.000000 -1.362397 -1.042974 -3.749597 3.731502 -0.889724 -2.618342 -1.830042 -1.067233 -4.392806 -32.492647 2.396934 5.755711 -38.974813 6.947115 -1.851037 0.523940 -11.156047 7.974537 -1.894249 -0.487282 -1.581197 4.988449 6.696263 1.252794 68.141573 1.275431 -4.429316 0.737723 46.020624 -0.493466 0.000000 0.000000 -0.000000 -15.615698 16.746996 -2.340686 -0.454119 3.499007 19.214297 0.000000 0.000000 0.000000 -13.741369 5.989256 -12.443799 5.383467 8.456837 16.792361 
3.905866 0.259711 0.365114 3.223437 30.591412 -5.207390 -0.000000 0.000000 -0.000000 -7.405817 0.048445 -1.628825 -0.931216 -0.103589 -3.104914 0.000000 0.000000 0.000000 -1.450360 -0.992578 -3.840150 3.968254 -0.652790 -3.013297 -1.890200 -1.035056 -4.500418 -31.945385 2.420193 5.780405 -39.534133 6.327029 -1.489514 0.489971 -11.846988 7.910733 -1.999938 -0.407231 -1.629866 5.017045 6.598255 1.219207 67.663139 1.414860 -4.367934 0.712506 46.071455 -0.498011 0.000000 0.000000 -0.000000 -15.405296 16.751113 -2.486402 -0.463226 3.623955 19.055144 0.000000 0.000000 0.000000 -13.305326 4.570714 -11.901474 4.985928 8.664121 15.580492 
3.951998 0.310763 0.405513 3.079598 30.508982 -5.118258 -0.000000 0.000000 -0.000000 -7.634633 0.087421 -1.455256 -0.919103 -0.087626 -3.270297 0.000000 0.000000 0.000000 -1.491927 -0.966902 -3.937280 4.286945 -0.469682 -3.668913 -1.922085 -1.004443 -4.634235 -31.343351 2.412002 5.903368 -40.008895 5.708234 -0.873436 0.455301 -12.345210 7.846546 -2.054402 -0.363059 -1.699955 5.072800 6.512693 1.178029 67.035293 1.460864 -4.353817 0.680450 46.548158 -0.498282 0.000000 0.000000 -0.000000 -15.255458 16.856620 -2.536103 -0.464623 3.758439 18.794398 0.000000 0.000000 0.000000 -12.988354 3.579401 -11.530906 4.614348 8.647021 14.529572 
